<?xml version="1.0" encoding="utf-8"?>
<!-- Generator: Adobe Illustrator 27.7.0, SVG Export Plug-In . SVG Version: 6.00 Build 0)  -->
<svg version="1.1" id="Layer_1" xmlns="http://www.w3.org/2000/svg" xmlns:xlink="http://www.w3.org/1999/xlink" x="0px" y="0px"
	 viewBox="0 0 462.7 74" style="enable-background:new 0 0 462.7 74;" xml:space="preserve">
<style type="text/css">
	.st0{fill:#FFC960;}
</style>
<polygon class="st0" points="63.9,72.3 39.7,60.7 16.4,74 19.9,47.4 0,29.4 26.4,24.5 37.4,0 50.2,23.6 76.9,26.5 58.4,46 "/>
<polygon class="st0" points="160.4,72.3 136.1,60.7 112.8,74 116.4,47.4 96.4,29.4 122.9,24.5 133.8,0 146.6,23.6 173.4,26.5 
	154.8,46 "/>
<polygon class="st0" points="256.8,72.3 232.6,60.7 209.3,74 212.8,47.4 192.9,29.4 219.3,24.5 230.3,0 243.1,23.6 269.8,26.5 
	251.3,46 "/>
<polygon class="st0" points="353.3,72.3 329,60.7 305.7,74 309.3,47.4 289.3,29.4 315.8,24.5 326.7,0 339.5,23.6 366.2,26.5 
	347.7,46 "/>
<polygon class="st0" points="449.7,72.3 425.5,60.7 402.2,74 405.7,47.4 385.8,29.4 412.2,24.5 423.2,0 436,23.6 462.7,26.5 
	444.2,46 "/>
</svg>
